<svg width="57" height="59" viewBox="0 0 57 59" fill="none" xmlns="http://www.w3.org/2000/svg">
<g clip-path="url(#clip0_1_458)">
<path d="M45.377 21.5278C44.6337 22.2663 43.6285 22.6807 42.5807 22.6807C41.5329 22.6807 40.5277 22.2663 39.7844 21.5278L36.5005 18.2439C35.7614 17.5007 35.3464 16.4952 35.3464 15.447C35.3464 14.3988 35.7614 13.3932 36.5005 12.6501L43.9334 5.21346C43.9481 5.19931 43.9591 5.18175 43.9654 5.16232C43.9716 5.1429 43.973 5.12223 43.9693 5.10216C43.9656 5.08209 43.9571 5.06324 43.9443 5.04729C43.9316 5.03134 43.9151 5.0188 43.8964 5.01077C39.0985 2.95418 32.878 4.00225 28.928 7.92386C25.1485 11.6749 24.9335 17.3169 26.3177 22.2409C26.5144 22.9408 26.5139 23.6814 26.3163 24.381C26.1187 25.0807 25.7317 25.7121 25.198 26.2058L4.60735 45.0104C3.99985 45.5491 3.50893 46.2063 3.16479 46.9416C2.82065 47.677 2.63056 48.4749 2.6062 49.2865C2.58183 50.098 2.72372 50.906 3.02313 51.6606C3.32254 52.4153 3.77315 53.1008 4.34725 53.6749C4.92135 54.249 5.60681 54.6996 6.36148 54.999C7.11616 55.2984 7.9241 55.4403 8.73563 55.4159C9.54717 55.3916 10.3451 55.2015 11.0805 54.8573C11.8159 54.5132 12.473 54.0223 13.0117 53.4148L32.0277 32.7747C32.515 32.25 33.136 31.8677 33.824 31.6689C34.512 31.4701 35.2411 31.4623 35.9332 31.6463C40.8201 32.9552 46.3818 32.7092 50.1118 29.0274C54.1274 25.0724 54.9938 18.082 53.0472 14.0813C53.0384 14.0638 53.0256 14.0486 53.0099 14.0371C52.9941 14.0255 52.9758 14.0178 52.9565 14.0147C52.9372 14.0115 52.9174 14.013 52.8988 14.019C52.8802 14.025 52.8633 14.0353 52.8494 14.0491L45.377 21.5278Z" stroke="white" stroke-width="3.95498" stroke-miterlimit="10" stroke-linecap="round"/>
</g>
<defs>
<clipPath id="clip0_1_458">
<rect width="55.8184" height="58.5635" fill="white" transform="translate(0.330078 0.320312)"/>
</clipPath>
</defs>
</svg>
