<svg width="110" height="81" viewBox="0 0 110 81" fill="none" xmlns="http://www.w3.org/2000/svg">
<g clip-path="url(#clip0_1_478)">
<path d="M67.5961 17.3802C67.4316 17.545 67.2363 17.6757 67.0212 17.7649C66.8061 17.8541 66.5755 17.9 66.3427 17.9C66.1098 17.9 65.8793 17.8541 65.6642 17.7649C65.4491 17.6757 65.2537 17.545 65.0892 17.3802C64.6031 16.8925 64.0253 16.5059 63.389 16.2427C62.7527 15.9795 62.0706 15.8449 61.3821 15.8466C59.9283 15.8466 58.6287 16.4299 57.6749 17.3802C57.5103 17.5448 57.3149 17.6754 57.0998 17.7645C56.8847 17.8535 56.6542 17.8994 56.4214 17.8994C55.9513 17.8994 55.5004 17.7126 55.168 17.3802C55.0034 17.2156 54.8728 17.0202 54.7837 16.8051C54.6946 16.59 54.6488 16.3595 54.6488 16.1267C54.6488 15.6566 54.8355 15.2057 55.168 14.8733C55.9835 14.0567 56.9522 13.4091 58.0186 12.9676C59.0849 12.5262 60.2279 12.2995 61.3821 12.3008C62.5362 12.2995 63.6792 12.5262 64.7455 12.9676C65.8119 13.4091 66.7806 14.0567 67.5961 14.8733C67.9285 15.2058 68.1152 15.6566 68.1152 16.1267C68.1152 16.5969 67.9285 17.0477 67.5961 17.3802ZM47.0108 15.6871C45.4451 16.6027 44.0287 17.7524 42.8107 19.0964L42.809 19.0982C41.5878 20.448 40.5814 21.9776 39.8251 23.6333C39.0493 25.3326 38.5495 27.1449 38.3447 29.0017C38.3191 29.2331 38.3394 29.4673 38.4043 29.6909C38.4692 29.9145 38.5775 30.1232 38.723 30.3049C38.8685 30.4867 39.0484 30.638 39.2525 30.7502C39.4565 30.8624 39.6806 30.9334 39.912 30.959C40.1434 30.9846 40.3776 30.9644 40.6012 30.8995C40.8249 30.8346 41.0335 30.7263 41.2152 30.5807C41.397 30.4352 41.5483 30.2553 41.6605 30.0513C41.7728 29.8473 41.8437 29.6232 41.8693 29.3917C42.0335 27.9091 42.4327 26.462 43.0518 25.1048C44.2672 22.4446 46.2746 20.2248 48.7996 18.7489C49.0007 18.6314 49.1766 18.4755 49.3174 18.2901C49.4582 18.1046 49.5611 17.8933 49.6202 17.668C49.6793 17.4428 49.6935 17.2082 49.6619 16.9775C49.6303 16.7468 49.5536 16.5246 49.4361 16.3235C49.3187 16.1225 49.1628 15.9466 48.9773 15.8058C48.7919 15.665 48.5805 15.5621 48.3553 15.503C47.9004 15.3836 47.4168 15.4498 47.0108 15.6871ZM73.7925 35.4888C73.7925 35.0186 73.9793 34.5676 74.3118 34.2352C74.6443 33.9027 75.0952 33.7159 75.5654 33.7159C76.0356 33.7159 76.4866 33.9027 76.8191 34.2352C77.1515 34.5676 77.3383 35.0186 77.3383 35.4888C77.3359 37.0883 76.7148 38.6249 75.6051 39.7769C74.4954 40.9289 72.9832 41.6069 71.3849 41.6692C71.7802 42.483 72.0196 43.3872 72.0196 44.3534C72.0196 44.8236 71.8328 45.2746 71.5003 45.607C71.1678 45.9395 70.7169 46.1263 70.2467 46.1263C69.7765 46.1263 69.3255 45.9395 68.993 45.607C68.6605 45.2746 68.4737 44.8236 68.4737 44.3534C68.4728 43.6484 68.1923 42.9725 67.6938 42.474C67.1953 41.9754 66.5194 41.695 65.8144 41.694H54.8542C54.384 41.694 53.933 41.5072 53.6005 41.1747C53.268 40.8423 53.0812 40.3913 53.0812 39.9211C53.0812 39.4509 53.268 38.9999 53.6005 38.6675C53.933 38.335 54.384 38.1482 54.8542 38.1482H58.7227C59.4276 38.1468 60.1032 37.8661 60.6016 37.3677C61.1 36.8693 61.3807 36.1937 61.3821 35.4888C61.3821 35.0186 61.5688 34.5676 61.9013 34.2352C62.2338 33.9027 62.6848 33.7159 63.155 33.7159C63.6252 33.7159 64.0761 33.9027 64.4086 34.2352C64.7411 34.5676 64.9279 35.0186 64.9279 35.4888C64.9279 36.4444 64.6939 37.3397 64.3074 38.1482H71.1331C71.838 38.1468 72.5136 37.8661 73.012 37.3677C73.5105 36.8693 73.7911 36.1937 73.7925 35.4888Z" fill="white" fill-opacity="0.7"/>
<path d="M87.9756 34.0897C87.9756 32.9763 87.8958 31.8984 87.7735 30.8523C86.1655 16.9917 74.4092 6.2389 60.1213 6.23535H57.937C43.1917 6.23712 31.244 18.1848 31.2422 32.9302C31.2422 34.3139 31.5147 35.684 32.0442 36.9623C32.5737 38.2407 33.3498 39.4022 34.3282 40.3806C36.3042 42.3566 38.9842 43.4667 41.7786 43.4667H43.9788C44.5751 45.989 46.005 48.2363 48.0371 49.845C50.0693 51.4537 52.5848 52.3297 55.1766 52.3313H67.7714L73.2958 57.8557C73.4818 58.0414 73.7186 58.1679 73.9764 58.2191C74.2342 58.2703 74.5014 58.2439 74.7442 58.1434C74.987 58.0429 75.1946 57.8726 75.3407 57.6542C75.4868 57.4357 75.5649 57.1789 75.5652 56.916V52.1841C78.2904 51.8448 80.8582 50.7204 82.9559 48.9479C85.0536 47.1754 86.5906 44.8312 87.3799 42.2008C87.6334 41.3533 87.7788 40.4598 87.871 39.5503L87.8763 39.5361C87.926 39.373 87.9756 39.2117 87.9756 39.0344C87.9756 38.9262 87.9685 38.8181 87.9614 38.7117L87.949 38.5078C87.949 38.4511 87.9561 38.3961 87.9614 38.3429C87.9685 38.2773 87.9756 38.2135 87.9756 38.1479V34.0897ZM83.983 41.1885C83.3284 43.383 81.9831 45.3077 80.1471 46.6764C78.311 48.0451 76.0823 48.7848 73.7923 48.7854H55.1766C53.187 48.7852 51.2693 48.0413 49.8 46.6996C48.3308 45.358 47.4162 43.5156 47.2357 41.5342L47.2251 41.4207C47.2843 39.1181 48.2422 36.93 49.8938 35.3245C51.5454 33.7189 53.7597 32.8233 56.0631 32.8291C56.5333 32.8291 56.9842 32.6424 57.3167 32.3099C57.6492 31.9774 57.836 31.5264 57.836 31.0562C57.836 30.586 57.6492 30.1351 57.3167 29.8026C56.9842 29.4701 56.5333 29.2833 56.0631 29.2833C53.9807 29.2806 51.9316 29.8045 50.1061 30.8062C49.7568 30.0233 49.2691 29.3097 48.6664 28.7C48.334 28.3676 47.8831 28.1808 47.413 28.1808C46.9429 28.1808 46.492 28.3676 46.1595 28.7C45.8271 29.0325 45.6403 29.4833 45.6403 29.9535C45.6403 30.4236 45.8271 30.8745 46.1595 31.2069C46.663 31.7122 47.0052 32.3593 47.1346 33.0844C45.3311 34.9561 44.1625 37.3479 43.7945 39.9208H41.7786C40.8602 39.9222 39.9505 39.7419 39.1019 39.3905C38.2533 39.0391 37.4826 38.5234 36.834 37.8731C36.184 37.2247 35.6686 36.4542 35.3174 35.6059C34.9663 34.7576 34.7864 33.8483 34.788 32.9302C34.788 26.5317 37.3765 20.7556 41.5677 16.5608C43.7147 14.4077 46.2662 12.7002 49.0755 11.5367C51.8848 10.3732 54.8964 9.77659 57.937 9.78119H60.1213C71.9821 9.77765 81.8324 18.2912 83.9688 29.5297C82.0152 27.6212 79.5199 26.3625 76.8239 25.9254C77.7157 24.2908 78.2246 22.4132 78.2246 20.4187C78.2246 19.9485 78.0378 19.4976 77.7053 19.1651C77.3728 18.8326 76.9218 18.6458 76.4516 18.6458C75.9814 18.6458 75.5305 18.8326 75.198 19.1651C74.8655 19.4976 74.6787 19.9485 74.6787 20.4187C74.6806 21.4667 74.4751 22.5047 74.074 23.4729C73.673 24.4411 73.0843 25.3204 72.342 26.0601C71.6023 26.8025 70.723 27.3911 69.7548 27.7921C68.7865 28.1932 67.7486 28.3987 66.7006 28.3968C66.2304 28.3968 65.7794 28.5836 65.4469 28.9161C65.1144 29.2486 64.9277 29.6996 64.9277 30.1698C64.9277 30.64 65.1144 31.0909 65.4469 31.4234C65.7794 31.7559 66.2304 31.9427 66.7006 31.9427C69.4415 31.9443 72.0925 30.9645 74.1734 29.1805L74.2018 29.1893C74.3551 29.2446 74.5159 29.2763 74.6787 29.2833C77.3771 29.2833 79.8042 30.3719 81.5736 32.1395C83.2724 33.8389 84.2806 36.108 84.4032 38.5078C84.378 39.4156 84.2368 40.3165 83.983 41.1885Z" fill="white" fill-opacity="0.7"/>
</g>
<defs>
<clipPath id="clip0_1_478">
<rect width="77.7797" height="67.7141" fill="white" transform="translate(31.2422 5.32031)"/>
</clipPath>
</defs>
</svg>
