<svg width="400" height="575" viewBox="0 0 400 575" fill="none" xmlns="http://www.w3.org/2000/svg">
<path d="M172.8 6.59985C174 10.0665 175.2 20.1999 175.6 28.9999C176.534 48.8665 173.867 60.5999 164.134 81.1332C156.4 97.2665 149.467 108.067 126 141C102.667 173.533 93.3336 188.6 83.3336 209C60.4003 255.933 55.6003 301.533 68.0003 352.333C71.8669 367.8 80.0003 392.467 83.4669 399.267C89.7336 411.533 64.0003 390.467 53.7336 375C39.3336 353.533 26.5336 315.933 23.2003 285.8L22.2669 277.267L19.6003 282.467C10.9336 299.267 3.46695 327.8 1.06695 352.467C-3.06639 397.533 10.8003 449.4 37.8669 489.933C60.1336 523.133 89.2003 547.933 118.267 558.067C133.334 563.267 156.667 564.6 170.534 561C202.934 552.6 216.534 528.2 206.8 496.333C202.534 482.467 199.467 477 180.8 449.133C144.267 394.867 127.6 349.4 127.6 303.667C127.6 262.6 140.267 228.467 166.934 197.933C174.534 189.267 189.2 175.8 190.134 176.733C190.4 177 189.067 181.133 187.2 185.8C185.2 190.467 182.267 200.067 180.4 207C169.334 250.467 177.2 287.933 205.2 325.267C210 331.667 227.734 351.133 244.534 368.333C261.334 385.533 279.2 405 284.267 411.533C295.467 425.933 304.667 444.333 307.467 457.667C310.667 472.867 308.534 493.667 302.267 508.6C300.534 512.6 300.267 512.733 299.334 510.333C288.267 480.733 280.667 466.467 267.6 451.267C254.4 435.933 235.867 422.6 220 417C216.134 415.667 214.8 415.533 215.6 416.733C216.134 417.667 219.734 423.133 223.734 429C233.067 443 245.867 469.133 249.334 481.667C253.334 495.667 254.267 517.133 251.6 527.933C246.934 545.8 235.734 561 218.534 572.467C215.6 574.6 216.534 574.467 228.667 572.333C322.134 555.667 380.667 506.467 396.934 430.733C400.667 413.4 400.267 377.4 396.267 359C390.4 332.867 382 313.533 365.334 287.667C346 257.8 335.867 233.4 331.334 205.8C328 186.467 329.067 155.267 333.6 138.2L336.8 125.933L331.334 127.933C317.6 132.733 299.067 145.267 287.734 157.4C279.867 165.8 270 180.867 265.867 190.733L262.8 198.333L262.667 181.267C262.534 119.533 244.534 66.9999 211.6 31.5332C202.267 21.5332 187.867 9.93323 177.067 3.66656L170.667 0.0665283L172.8 6.59985ZM305.2 268.867C309.067 279.667 318.934 298.067 330.534 316.2C349.867 346.2 356.4 365.4 356.4 392.333C356.4 403.267 355.6 411 353.6 419C350.934 430.067 346.134 444.067 344.267 445.933C343.734 446.467 343.2 442.067 343.2 436.333C343.067 430.467 342.267 422.6 341.334 418.733C338.667 407.267 330.134 391.133 320.4 379.133C315.467 373 307.867 363.8 303.6 358.467C294 346.733 284.534 328.067 282 315.667C277.2 292.467 280.934 265.267 292.667 239.667L296.267 231.667L299.334 246.333C301.067 254.333 303.6 264.467 305.2 268.867Z" fill="url(#paint0_linear_102_3)"/>
<defs>
<linearGradient id="paint0_linear_102_3" x1="199.931" y1="574.001" x2="199.931" y2="0.0665283" gradientUnits="userSpaceOnUse">
<stop stop-color="#FF5656"/>
<stop offset="0.0364583" stop-color="#FC5350"/>
<stop offset="1" stop-color="#FF893A"/>
</linearGradient>
</defs>
</svg>
