<svg width="63" height="57" viewBox="0 0 63 57" fill="none" xmlns="http://www.w3.org/2000/svg">
<path d="M18.8991 38.7529C15.4677 38.7529 12.5509 37.5519 10.1489 35.1498C7.74691 32.7478 6.5459 29.8311 6.5459 26.3996C6.5459 22.9682 7.74691 20.0514 10.1489 17.6494C12.5509 15.2474 15.4677 14.0464 18.8991 14.0464H39.4879C42.9193 14.0464 45.8361 15.2474 48.2381 17.6494C50.6401 20.0514 51.8411 22.9682 51.8411 26.3996C51.8411 29.8311 50.6401 32.7478 48.2381 35.1498C45.8361 37.5519 42.9193 38.7529 39.4879 38.7529H18.8991ZM18.8991 34.6351H39.4879C41.7527 34.6351 43.6914 33.8287 45.3042 32.216C46.917 30.6032 47.7234 28.6644 47.7234 26.3996C47.7234 24.1349 46.917 22.1961 45.3042 20.5833C43.6914 18.9705 41.7527 18.1641 39.4879 18.1641H18.8991C16.6344 18.1641 14.6956 18.9705 13.0828 20.5833C11.47 22.1961 10.6636 24.1349 10.6636 26.3996C10.6636 28.6644 11.47 30.6032 13.0828 32.216C14.6956 33.8287 16.6344 34.6351 18.8991 34.6351ZM39.4879 32.5763C41.2036 32.5763 42.662 31.9758 43.863 30.7747C45.064 29.5737 45.6645 28.1154 45.6645 26.3996C45.6645 24.6839 45.064 23.2255 43.863 22.0245C42.662 20.8235 41.2036 20.223 39.4879 20.223C37.7722 20.223 36.3138 20.8235 35.1128 22.0245C33.9118 23.2255 33.3113 24.6839 33.3113 26.3996C33.3113 28.1154 33.9118 29.5737 35.1128 30.7747C36.3138 31.9758 37.7722 32.5763 39.4879 32.5763Z" fill="white"/>
</svg>
